# AST/ASF file generated using VICON BodyLanguage
# -----------------------------------------------
:version 1.10
:name VICON
:units
  mass 1.0
  length 0.45
  angle deg
:documentation
   .ast/.asf automatically generated from VICON data using
   VICON BodyBuilder and BodyLanguage model FoxedUp or BRILLIANT.MOD
:root
   order TX TY TZ RX RY RZ
   axis XYZ
   position 0 0 0  
   orientation 0 0 0 
:bonedata
  begin
     id 1 
     name lhipjoint
     direction 0.677091 -0.635792 0.370561 
     length 2.74323 
     axis 0 0 0  XYZ
  end
  begin
     id 2 
     name lfemur
     direction 0.34202 -0.939693 0  
     length 7.44995  
     axis 0 0 20  XYZ
    dof rx ry rz
    limits (-160.0 20.0)
           (-70.0 70.0)
           (-60.0 70.0)
  end
  begin
     id 3 
     name ltibia
     direction 0.34202 -0.939693 0   
     length 7.34467   
     axis 0 0 20   XYZ
    dof rx
    limits (-10.0 170.0)
  end
  begin
     id 4 
     name lfoot
     direction 0.101953 -0.280114 0.954537   
     length 1.72105   
     axis -90 7.62852e-016 20   XYZ
    dof rx rz
    limits (-45.0 90.0)
           (-70.0 20.0)
  end
  begin
     id 5 
     name ltoes
     direction 1.53537e-011 -4.21915e-011 1   
     length 0.865872   
     axis -90 7.62852e-016 20   XYZ
    dof rx
    limits (-90.0 20.0)
  end
  begin
     id 6 
     name rhipjoint
     direction -0.695735 -0.620586 0.361699   
     length 2.81045  
     axis 0 0 0  XYZ 
  end
  begin
     id 7 
     name rfemur
     direction -0.34202 -0.939693 0   
     length 7.29387   
     axis 0 0 -20   XYZ
    dof rx ry rz
    limits (-160.0 20.0)
           (-70.0 70.0)
           (-70.0 60.0)
  end
  begin
     id 8 
     name rtibia
     direction -0.34202 -0.939693 0   
     length 7.44935   
     axis 0 0 -20   XYZ
    dof rx
    limits (-10.0 170.0)
 end
 begin
     id 9 
     name rfoot
     direction -0.104163 -0.286184 0.952496   
     length 1.77731  
     axis -90 -7.62852e-016 -20   XYZ
    dof rx rz
    limits (-45.0 90.0)
           (-20.0 70.0)
  end
  begin
     id 10 
     name rtoes
     direction -1.5355e-011 -4.21888e-011 1   
     length 0.892424   
     axis -90 -7.62852e-016 -20   XYZ
    dof rx
    limits (-90.0 20.0)
  end
  begin
     id 11 
     name lowerback
     direction 0.0100202 0.997226 -0.0737589   
     length 2.16892   
     axis 0 0 0   XYZ
    dof rx ry rz
    limits (-20.0 45.0)
           (-30.0 30.0)
           (-30.0 30.0)
  end
  begin
     id 12 
     name upperback
     direction 0.00432398 0.999988 -0.00215019   
     length 2.17326   
     axis 0 0 0   XYZ
    dof rx ry rz
    limits (-20.0 45.0)
           (-30.0 30.0)
           (-30.0 30.0)
  end
  begin
     id 13 
     name thorax
     direction -0.00195047 0.999485 0.0320434   
     length 2.18139   
     axis 0 0 0   XYZ
    dof rx ry rz
    limits (-20.0 45.0)
           (-30.0 30.0)
           (-30.0 30.0)
  end
  begin
     id 14 
     name lowerneck
     direction 0.00782762 0.986241 0.165128   
     length 1.88415   
     axis 0 0 0   XYZ
    dof rx ry rz
    limits (-20.0 45.0)
           (-30.0 30.0)
           (-30.0 30.0)
  end
  begin
     id 15 
     name upperneck
     direction 0.00988667 0.981098 -0.193258   
     length 1.9242   
     axis 0 0 0   XYZ
    dof rx ry rz
    limits (-20.0 45.0)
           (-30.0 30.0)
           (-30.0 30.0)
  end
  begin
     id 16
     name head
     direction 0.00252199 0.996513 -0.0833958  
     length 1.93887  
     axis 0 0 0   XYZ
    dof rx ry rz
    limits (-20.0 45.0)
           (-30.0 30.0)
           (-30.0 30.0)
  end
  begin
     id 17 
     name lclavicle
     direction 0.929492 0.368193 -0.0218667  
     length 3.5955  
     axis 0 0 0   XYZ
    dof ry rz
    limits (-20.0 10.0)
           (0.0 20.0)
  end
  begin
     id 18 
     name lhumerus
     direction 1 -4.48972e-011 1.41911e-027   
     length 5.2795   
     axis 180 -30 -90   XYZ
    dof rx ry rz
    limits (-60.0 90.0)
           (-90.0 90.0)
           (-90.0 90.0)
  end
  begin
     id 19
     name lradius
     direction 1 -4.48963e-011 7.05772e-027   
     length 3.53504   
     axis 180 -30 -90   XYZ
    dof rx
    limits (-10.0 170.0)
  end
  begin
     id 20
     name lwrist
     direction 1 -4.48957e-011 9.54866e-027   
     length 1.76752   
     axis -7.69462e-015 90 90   XYZ
    dof ry
    limits (-180.0 0.0)
 end
  begin
     id 21 
     name lhand
     direction 1 -4.48979e-011 1.90973e-026   
     length 0.667948   
     axis -1.21857e-014 90 90   XYZ
    dof rx rz
    limits (-90.0 90.0)
           (-45.0 45.0)
  end
  begin
     id 22 
     name lfingers
     direction 1 -4.48987e-011 3.81946e-026   
     length 0.538517   
     axis -2.43714e-014 90 90   XYZ
    dof rx
    limits (0.0 90.0)
  end
  begin
     id 23
     name lthumb
     direction 0.707107 -6.34962e-011 0.707107   
     length 0.773206   
     axis -90 45 2.85299e-015   XYZ
    dof rx rz
    limits (-45.0 45.0)
           (-45.0 45.0)
  end
  begin
     id 24 
     name rclavicle
     direction -0.898763 0.414256 -0.143584   
     length 3.5176  
     axis 0 0 0   XYZ 
    dof ry rz
    limits (-10.0 20.0)
           (-20.0 0.0)
  end
  begin
     id 25 
     name rhumerus
     direction -1 -4.48971e-011 1.129e-027  
     length 5.25035   
     axis 180 30 90   XYZ
    dof rx ry rz
    limits (-90.0 60.0)
           (-90.0 90.0)
           (-90.0 90.0)
  end
  begin
     id 26 
     name rradius
     direction -1 -4.48955e-011 6.34664e-027   
     length 3.58884   
     axis 180 30 90   XYZ
    dof rx
    limits (-10.0 170.0)
  end
  begin
     id 27 
     name rwrist
     direction -1 -4.48966e-011 9.54866e-027   
     length 1.79442   
     axis -7.69462e-015 -90 -90   XYZ
    dof ry
    limits (-180.0 0.0)
  end
  begin
     id 28
     name rhand
     direction -1 -4.48973e-011 1.90973e-026   
     length 0.779235   
     axis -1.21857e-014 -90 -90   XYZ
    dof rx rz
    limits (-90.0 90.0)
           (-45.0 45.0)
  end
  begin
     id 29
     name rfingers
     direction -1 -4.48984e-011 3.81946e-026   
     length 0.62824   
     axis -2.43714e-014 -90 -90   XYZ
    dof rx
    limits (0.0 90.0)
  end
  begin
     id 30
     name rthumb
     direction -0.707107 -6.34968e-011 0.707107   
     length 0.90203   
     axis -90 -45 -2.85299e-015   XYZ
    dof rx rz
    limits (-45.0 45.0)
           (-45.0 45.0)
  end
:hierarchy
  begin
    root lhipjoint rhipjoint lowerback
    lhipjoint lfemur
    lfemur ltibia
    ltibia lfoot
    lfoot ltoes
    rhipjoint rfemur
    rfemur rtibia
    rtibia rfoot
    rfoot rtoes
    lowerback upperback
    upperback thorax
    thorax lowerneck lclavicle rclavicle
    lowerneck upperneck
    upperneck head
    lclavicle lhumerus
    lhumerus lradius
    lradius lwrist
    lwrist lhand lthumb
    lhand lfingers
    rclavicle rhumerus
    rhumerus rradius
    rradius rwrist
    rwrist rhand rthumb
    rhand rfingers
  end

#!OML:ASF I:\Random Stuff\random\construction\7_22_03\Session 2\subj1.ASF
:FULLY-SPECIFIED
:DEGREES
443
root -10.8235 17.6547 -5.24323 -336.036 82.3178 -365.998
lowerback 26.413 3.17825 -4.35818
upperback 8.98014 3.73743 1.84058
thorax -4.98828 1.99717 3.37045
lowerneck -10.0915 0.907055 -3.76799
upperneck 33.2667 3.68113 -0.511978
head 12.6795 1.41257 1.03212
rclavicle -4.21423e-014 -2.34566e-014
rhumerus -21.6192 28.9224 -91.0015
rradius 96.4818
rwrist -22.4881
rhand -46.2807 15.4342
rfingers 7.12502
rthumb -19.0156 -13.6563
lclavicle -4.21423e-014 -2.34566e-014
lhumerus 13.4738 -18.0761 59.4458
lradius 58.476
lwrist 6.26112
lhand -37.4251 76.7353
lfingers 7.12502
lthumb -10.4847 253.546
rfemur -44.8316 6.80153 7.10821
rtibia 18.7546
rfoot -3.69552 -7.82406
rtoes -23.4378
lfemur -45.3001 -3.99417 -7.90267
ltibia 24.8051
lfoot -15.191 6.76171
ltoes -17.7088
444
root -10.8249 17.6554 -5.24474 -336.261 82.2814 -366.218
lowerback 26.4109 3.18765 -4.37462
upperback 8.9859 3.74544 1.83998
thorax -4.9823 2.00068 3.37698
lowerneck -10.1199 0.933931 -3.84633
upperneck 33.3023 3.73071 -0.473365
head 12.6975 1.42844 1.06815
rclavicle -4.45278e-014 -2.62396e-014
rhumerus -21.3869 29.2235 -90.7385
rradius 96.3947
rwrist -21.0639
rhand -43.9812 12.0846
rfingers 7.12502
rthumb -16.8031 -17.2083
lclavicle -4.45278e-014 -2.62396e-014
lhumerus 13.531 -18.0124 59.4958
lradius 58.4202
lwrist 6.22392
lhand -37.4247 76.9872
lfingers 7.12502
lthumb -10.4843 253.294
rfemur -44.8207 6.9491 7.04677
rtibia 18.7071
rfoot -3.63619 -7.93897
rtoes -23.487
lfemur -45.3014 -3.96663 -7.88093
ltibia 24.846
lfoot -15.2153 6.78216
ltoes -17.8422
445
root -10.8261 17.6542 -5.24704 -336.706 82.116 -366.723
lowerback 26.2871 3.23492 -4.46795
upperback 8.99039 3.78482 1.84289
thorax -4.92595 2.01654 3.42634
lowerneck -10.105 0.994352 -3.89812
upperneck 33.3015 3.84508 -0.522657
head 12.6929 1.46581 1.07304
rclavicle -3.49861e-014 8.74653e-015
rhumerus -21.2257 30.0512 -90.6396
rradius 95.9794
rwrist -20.7317
rhand -42.0112 11.9151
rfingers 7.12502
rthumb -14.906 -17.5286
lclavicle -3.49861e-014 8.74653e-015
lhumerus 13.5087 -17.886 59.5471
lradius 58.3997
lwrist 6.26292
lhand -37.4153 77.3207
lfingers 7.12502
lthumb -10.4752 252.96
rfemur -44.9201 7.03644 7.06912
rtibia 18.6489
rfoot -3.58705 -7.84457
rtoes -23.6254
lfemur -45.3314 -3.84569 -7.84408
ltibia 24.8687
lfoot -15.2091 6.84841
ltoes -18.0789
446
root -10.8227 17.6544 -5.24767 -336.84 82.0863 -366.789
lowerback 26.2957 3.22067 -4.51486
upperback 9.01639 3.75788 1.84576
thorax -4.90086 2.00313 3.46512
lowerneck -10.016 1.04014 -3.88422
upperneck 33.2165 3.9431 -0.670202
head 12.6417 1.49443 1.02407
rclavicle 4.77083e-015 2.8625e-014
rhumerus -20.952 31.0478 -90.5738
rradius 95.3484
rwrist -20.5076
rhand -41.1532 11.573
rfingers 7.12502
rthumb -14.0792 -17.9301
lclavicle 4.77083e-015 2.8625e-014
lhumerus 13.4159 -17.7983 59.5294
lradius 58.3649
lwrist 6.20175
lhand -37.9478 77.9039
lfingers 7.12502
lthumb -10.9889 252.404
rfemur -44.797 7.07754 7.07428
rtibia 18.5542
rfoot -3.56616 -7.83012
rtoes -23.5341
lfemur -45.2746 -3.82574 -7.86135
ltibia 24.9381
lfoot -15.2276 6.80513
ltoes -18.2481
447
root -10.8222 17.6537 -5.24679 -336.902 82.0741 -366.831
lowerback 26.2934 3.20193 -4.60354
upperback 9.02487 3.71675 1.88601
thorax -4.89288 1.98219 3.57322
lowerneck -9.96377 1.07608 -3.93291
upperneck 33.1724 4.04651 -0.814372
head 12.615 1.5174 0.989452
rclavicle 1.39149e-014 5.60573e-014
rhumerus -20.8327 32.0375 -90.6518
rradius 94.7348
rwrist -20.3385
rhand -42.5736 11.1599
rfingers 7.12502
rthumb -15.4477 -18.2428
lclavicle 1.39149e-014 5.60573e-014
lhumerus 13.1934 -17.2958 59.6153
lradius 58.0186
lwrist 5.71055
lhand -38.0849 76.9337
lfingers 7.12502
lthumb -11.1212 253.381
rfemur -44.7406 7.09357 7.08362
rtibia 18.4778
rfoot -3.54263 -7.81544
rtoes -23.3275
lfemur -45.2781 -3.84585 -7.83482
ltibia 24.9966
lfoot -15.2662 6.81652
ltoes -17.5245
448
root -10.8265 17.6515 -5.23943 -337.403 81.8043 -367.572
lowerback 25.9531 3.36721 -4.83256
upperback 9.00098 3.8782 1.92064
thorax -4.78454 2.05203 3.70518
lowerneck -10.0141 1.04698 -3.90346
upperneck 33.2417 4.07097 -0.993139
head 12.6617 1.50944 0.921616
rclavicle -1.03368e-014 -2.5842e-014
rhumerus -20.8312 31.8285 -90.7485
rradius 94.8893
rwrist -22.3353
rhand -42.8714 12.1451
rfingers 7.12502
rthumb -15.7346 -17.2353
lclavicle -1.03368e-014 -2.5842e-014
lhumerus 13.0658 -17.0476 59.5988
lradius 57.89
lwrist 6.6262
lhand -37.8286 76.2245
lfingers 7.12502
lthumb -10.8739 254.077
rfemur -45.0825 7.18899 7.15974
rtibia 18.4468
rfoot -3.48392 -7.6308
rtoes -23.5272
lfemur -45.4664 -3.57367 -7.74607
ltibia 25.0217
lfoot -15.2922 6.90288
ltoes -17.1053
449
root -10.8262 17.6532 -5.2389 -337.121 81.8743 -367.325
lowerback 25.933 3.40871 -4.78273
upperback 8.99459 3.94245 1.91294
thorax -4.7856 2.0835 3.64908
lowerneck -10.0856 0.938353 -3.73583
upperneck 33.2949 3.99734 -1.30951
head 12.7144 1.4602 0.764385
rclavicle 2.06736e-014 3.61788e-014
rhumerus -20.8545 30.2202 -90.6635
rradius 96.0789
rwrist -23.3417
rhand -41.2877 8.91024
rfingers 7.12502
rthumb -14.2089 -20.5838
lclavicle 2.06736e-014 3.61788e-014
lhumerus 13.1895 -17.6471 59.3101
lradius 57.885
lwrist 6.64031
lhand -37.4232 76.5303
lfingers 7.12502
lthumb -10.4829 253.751
rfemur -45.0693 7.13038 7.13215
rtibia 18.4201
rfoot -3.49313 -7.65008
rtoes -23.5571
lfemur -45.5433 -3.52283 -7.83178
ltibia 25.054
lfoot -15.2664 6.80751
ltoes -17.1603
450
root -10.8251 17.655 -5.23849 -336.788 82.0178 -366.998
lowerback 25.9928 3.43354 -4.69626
upperback 8.97694 3.99263 1.92119
thorax -4.83555 2.10978 3.59024
lowerneck -10.1465 0.790506 -3.67746
upperneck 33.3388 3.87169 -1.56065
head 12.7575 1.38402 0.643676
rclavicle 7.63333e-014 2.26615e-014
rhumerus -21.3162 29.2227 -90.8883
rradius 96.9881
rwrist -23.618
rhand -42.3077 8.09311
rfingers 7.12502
rthumb -15.1915 -21.3292
lclavicle 7.63333e-014 2.26615e-014
lhumerus 13.5053 -18.2005 59.1553
lradius 57.7827
lwrist 6.58462
lhand -37.4769 76.4224
lfingers 7.12502
lthumb -10.5347 253.862
rfemur -45.0381 7.039 7.10781
rtibia 18.4415
rfoot -3.52888 -7.70665
rtoes -23.4814
lfemur -45.5853 -3.5531 -7.89559
ltibia 25.0295
lfoot -15.1735 6.71334
ltoes -17.8271
451
root -10.823 17.6541 -5.23563 -337.194 81.963 -367.387
lowerback 26.0456 3.54999 -4.75032
upperback 8.97807 4.12703 1.95886
thorax -4.87873 2.17412 3.61898
lowerneck -10.1694 0.660407 -3.81948
upperneck 33.3975 3.74115 -1.57922
head 12.7883 1.30954 0.645705
rclavicle -3.18055e-014 -3.49861e-014
rhumerus -21.662 28.2925 -90.9628
rradius 97.0659
rwrist -23.0198
rhand -42.7299 10.6169
rfingers 7.12502
rthumb -15.5982 -18.7742
lclavicle -3.18055e-014 -3.49861e-014
lhumerus 13.8071 -18.5246 59.2211
lradius 57.781
lwrist 6.55058
lhand -37.5288 76.4637
lfingers 7.12502
lthumb -10.5848 253.823
rfemur -45.0431 7.00701 7.23008
rtibia 18.4607
rfoot -3.54528 -7.57791
rtoes -23.7821
lfemur -45.527 -3.57176 -7.80398
ltibia 25.0191
lfoot -15.1718 6.79566
ltoes -18.062
452
root -10.8148 17.6573 -5.23696 -336.604 82.3786 -366.563
lowerback 26.3502 3.38764 -4.64002
upperback 9.02053 3.95233 2.01635
thorax -4.95902 2.09602 3.66189
lowerneck -10.108 0.611659 -4.00752
upperneck 33.3852 3.71884 -1.58591
head 12.769 1.27871 0.672401
rclavicle -6.36111e-015 3.53837e-014
rhumerus -21.8752 27.813 -90.9794
rradius 97.4042
rwrist -22.5313
rhand -43.581 10.2275
rfingers 7.12502
rthumb -16.4179 -19.0977
lclavicle -6.36111e-015 3.53837e-014
lhumerus 13.972 -18.476 59.3996
lradius 57.814
lwrist 6.27323
lhand -37.4067 76.7471
lfingers 7.12502
lthumb -10.467 253.533
rfemur -44.6245 6.86548 7.18901
rtibia 18.4786
rfoot -3.59502 -7.85673
rtoes -24.0384
lfemur -45.3674 -3.94997 -7.82904
ltibia 25.0034
lfoot -15.1825 6.67667
ltoes -17.6911
453
root -10.8176 17.6533 -5.23896 -337.508 82.2594 -367.692
lowerback 26.093 3.40511 -4.71852
upperback 8.98808 3.96076 2.04387
thorax -4.87791 2.09529 3.74376
lowerneck -10.0439 0.6225 -4.15525
upperneck 33.359 3.81627 -1.73325
head 12.7473 1.2874 0.653652
rclavicle -6.75868e-014 -4.17448e-014
rhumerus -21.9892 27.7414 -90.9329
rradius 97.7572
rwrist -22.6252
rhand -44.4095 9.62358
rfingers 7.12502
rthumb -17.2154 -19.6338
lclavicle -6.75868e-014 -4.17448e-014
lhumerus 13.9899 -18.0524 59.6734
lradius 57.7774
lwrist 5.9117
lhand -37.2961 77.016
lfingers 7.12502
lthumb -10.3603 253.259
rfemur -44.9352 6.78933 7.37477
rtibia 18.4883
rfoot -3.57783 -7.60343
rtoes -24.0884
lfemur -45.5942 -3.83162 -7.64615
ltibia 25.027
lfoot -15.1704 6.77119
ltoes -17.8044
454
root -10.8143 17.653 -5.23982 -337.922 82.2638 -368.127
lowerback 26.0462 3.36868 -4.80488
upperback 9.00421 3.90063 2.08923
thorax -4.83832 2.06445 3.86397
lowerneck -9.97097 0.655821 -4.28833
upperneck 33.3047 3.97908 -2.00091
head 12.7159 1.31279 0.594566
rclavicle -5.1684e-014 -7.67309e-014
rhumerus -22.2659 28.629 -91.1029
rradius 97.1962
rwrist -25.1209
rhand -45.9916 18.732
rfingers 7.12502
rthumb -18.7376 -10.3855
lclavicle -5.1684e-014 -7.67309e-014
lhumerus 13.8899 -17.5785 59.9246
lradius 57.7556
lwrist 5.69835
lhand -37.3368 77.0937
lfingers 7.12502
lthumb -10.3996 253.184
rfemur -44.9655 6.74153 7.46845
rtibia 18.5324
rfoot -3.63931 -7.5387
rtoes -23.7543
lfemur -45.6008 -3.80227 -7.59772
ltibia 25.0244
lfoot -15.2033 6.75763
ltoes -17.7216
455
root -10.8108 17.6512 -5.24141 -337.755 82.334 -367.918
lowerback 26.0668 3.31558 -4.86945
upperback 9.03526 3.82341 2.11587
thorax -4.81017 2.0268 3.9542
lowerneck -9.85516 0.678823 -4.38747
upperneck 33.1956 4.10873 -2.26584
head 12.6532 1.33052 0.525289
rclavicle -4.37326e-014 -3.61788e-014
rhumerus -22.3095 28.9126 -91.0126
rradius 97.3964
rwrist -25.554
rhand -46.693 19.2544
rfingers 7.12502
rthumb -19.4122 -9.79667
lclavicle -4.37326e-014 -3.61788e-014
lhumerus 13.83 -17.3707 59.9882
lradius 57.697
lwrist 5.6467
lhand -37.4272 76.9266
lfingers 7.12502
lthumb -10.4868 253.355
rfemur -44.8873 6.64357 7.48921
rtibia 18.5362
rfoot -3.66948 -7.51632
rtoes -23.5919
lfemur -45.6067 -3.94886 -7.57351
ltibia 25.0879
lfoot -15.3178 6.82161
ltoes -17.367
456
root -10.8088 17.6494 -5.24174 -337.718 82.3301 -367.873
lowerback 26.0375 3.30776 -4.92758
upperback 9.06896 3.80339 2.1098
thorax -4.75855 2.0159 3.9891
lowerneck -9.84742 0.705332 -4.48306
upperneck 33.1726 4.22303 -2.42605
head 12.6465 1.35101 0.495678
rclavicle 7.95139e-016 -2.10712e-014
rhumerus -22.4619 29.3062 -91.0873
rradius 97.4406
rwrist -26.5416
rhand -47.8844 22.7095
rfingers 7.12502
rthumb -20.5573 -6.22206
lclavicle 7.95139e-016 -2.10712e-014
lhumerus 13.8383 -17.3584 59.8787
lradius 57.638
lwrist 5.74497
lhand -37.4436 76.7479
lfingers 7.12502
lthumb -10.5026 253.534
rfemur -44.9058 6.62072 7.49348
rtibia 18.5961
rfoot -3.69913 -7.49251
rtoes -23.6207
lfemur -45.5977 -3.97347 -7.56848
ltibia 25.0854
lfoot -15.3614 6.82842
ltoes -17.1937
457
root -10.8071 17.6497 -5.24272 -338 82.3131 -368.152
lowerback 26.0252 3.31883 -4.8954
upperback 9.09635 3.8251 2.07378
thorax -4.72058 2.02634 3.92558
lowerneck -9.92127 0.717581 -4.5718
upperneck 33.2224 4.28935 -2.46774
head 12.6838 1.36257 0.505575
rclavicle -3.57812e-014 -5.76476e-014
rhumerus -22.5014 29.3166 -91.088
rradius 97.5515
rwrist -26.6084
rhand -48.4219 23.6235
rfingers 7.12502
rthumb -21.0737 -5.25137
lclavicle -3.57812e-014 -5.76476e-014
lhumerus 13.8529 -17.4925 59.6503
lradius 57.6594
lwrist 5.90043
lhand -37.4292 76.7382
lfingers 7.12502
lthumb -10.4887 253.543
rfemur -44.9496 6.65514 7.51268
rtibia 18.6881
rfoot -3.75586 -7.49677
rtoes -23.5411
lfemur -45.5586 -3.89199 -7.58211
ltibia 25.0532
lfoot -15.3477 6.78992
ltoes -17.3841
